Coordinates
version=1
nRows=14
nColumns=24
inDegrees=yes

Units are S.I. units (second, meters, Newtons, ...)
Angles are in degrees.

endheader
time	pelvis_tilt	pelvis_list	pelvis_rotation	pelvis_tx	pelvis_ty	pelvis_tz	hip_flexion_r	hip_adduction_r	hip_rotation_r	knee_angle_r	ankle_angle_r	subtalar_angle_r	mtp_angle_r	hip_flexion_l	hip_adduction_l	hip_rotation_l	knee_angle_l	ankle_angle_l	subtalar_angle_l	mtp_angle_l	lumbar_extension	lumbar_bending	lumbar_rotation
      4.18500000	     -9.00998584	     -8.22154392	      8.91379561	     -1.57206037	     -0.02101267	      0.42130931	     20.82794786	      9.69671899	     -6.92425905	    -16.84429676	     -3.59321632	     -6.01658409	      4.52567657	     17.49073423	     -8.23124193	      7.26529400	    -59.73283809	    -24.27869814	      0.50522519	     28.06454383	      9.69305584	      5.37824577	     -3.56910593
      4.19000000	     -8.90848450	     -8.12399726	      8.85260225	     -1.56635387	     -0.02043061	      0.42205351	     20.18961691	      9.79360094	     -6.69363978	    -16.64065516	     -3.32363593	     -6.04013712	      4.48093275	     18.22689840	     -8.04258057	      7.27170201	    -60.47169729	    -23.69288233	     -0.84630795	     27.61523644	      9.54831067	      5.23639651	     -3.33833927
      4.19500000	     -8.82829178	     -7.96260719	      8.77276587	     -1.56065330	     -0.01981254	      0.42281857	     19.55064464	      9.82852886	     -6.40226989	    -16.41899114	     -3.05257302	     -6.09176444	      4.44029287	     18.94936747	     -7.78986649	      7.24007139	    -61.09041077	    -23.09893677	     -2.02354372	     27.22664754	      9.42024622	      5.02652238	     -3.09866211
      4.20000000	     -8.76630417	     -7.76334063	      8.66875031	     -1.55496519	     -0.01916709	      0.42360035	     18.91851002	      9.82573310	     -6.08525832	    -16.18699596	     -2.80683554	     -6.15638565	      4.40029518	     19.65779406	     -7.50120532	      7.18297917	    -61.59488412	    -22.45295743	     -2.98190645	     26.94102064	      9.30477580	      4.78019520	     -2.83380668
      4.20500000	     -8.72212094	     -7.52925069	      8.54268411	     -1.54928721	     -0.01849748	      0.42440681	     18.29588362	      9.78717445	     -5.74458468	    -15.94897103	     -2.58588531	     -6.23137686	      4.35980263	     20.35105222	     -7.17965438	      7.10380896	    -61.98579710	    -21.74411036	     -3.73023133	     26.74753059	      9.20423098	      4.50335432	     -2.54583630
      4.21000000	     -8.69321341	     -7.28288849	      8.40058968	     -1.54360788	     -0.01781449	      0.42522364	     17.67794651	      9.73298708	     -5.39518601	    -15.69188033	     -2.39007092	     -6.30058179	      4.32113736	     21.03556152	     -6.85506015	      6.99745247	    -62.27105385	    -20.96567730	     -4.26606534	     26.64008471	      9.12211896	      4.21603116	     -2.25546691
      4.21500000	     -8.68986259	     -6.99466607	      8.29142905	     -1.53797754	     -0.01713420	      0.42597928	     17.08081509	      9.61300980	     -5.07076748	    -15.42676990	     -2.16497418	     -6.36807778	      4.30181925	     21.73229352	     -6.46614376	      6.91598776	    -62.45154167	    -20.17949752	     -4.61727825	     26.66225720	      9.06452213	      3.88572342	     -2.00864039
      4.22000000	     -8.69514880	     -6.65902243	      8.07364557	     -1.53238404	     -0.01639703	      0.42684349	     16.49865634	      9.46568681	     -4.66358619	    -15.18968494	     -2.01171142	     -6.42358692	      4.26183213	     22.37343305	     -6.07079716	      6.71559576	    -62.50882037	    -19.27064255	     -4.75015516	     26.68636255	      8.99370491	      3.52688628	     -1.61771397
      4.22500000	     -8.71687638	     -6.30812481	      7.87918443	     -1.52678869	     -0.01567470	      0.42768396	     15.92129965	      9.28766883	     -4.27031785	    -14.92735498	     -1.84027895	     -6.48051566	      4.23028414	     23.01673204	     -5.65554420	      6.52522078	    -62.47005900	    -18.33275904	     -4.70527475	     26.76461363	      8.94848172	      3.15025274	     -1.28053827
      4.23000000	     -8.74787410	     -5.94617468	      7.65730562	     -1.52121383	     -0.01495244	      0.42855679	     15.35061601	      9.09652876	     -3.86162601	    -14.65581141	     -1.67869276	     -6.51351391	      4.20734996	     23.64059357	     -5.24610019	      6.30316059	    -62.32979661	    -17.34160962	     -4.48467585	     26.88190771	      8.91120376	      2.76686048	     -0.92624285
      4.23500000	     -8.78141244	     -5.58050247	      7.41913289	     -1.51563744	     -0.01424752	      0.42940540	     14.77027062	      8.89577759	     -3.41619400	    -14.36102262	     -1.51487953	     -6.53269998	      4.18945448	     24.24519741	     -4.84748946	      6.05239872	    -62.10416406	    -16.30962642	     -4.09599076	     27.00602910	      8.88400702	      2.39901043	     -0.57463303
      4.24000000	     -8.82649033	     -5.18526656	      7.17940625	     -1.51010485	     -0.01354201	      0.43023954	     14.21236806	      8.65050820	     -3.02196959	    -14.07873571	     -1.36009452	     -6.53375264	      4.18615936	     24.83176251	     -4.41582967	      5.79619003	    -61.77045758	    -15.31762584	     -3.66093086	     27.14967826	      8.86310077	      1.99989874	     -0.21821840
      4.24500000	     -8.85899760	     -4.79762131	      6.93038634	     -1.50461576	     -0.01287188	      0.43106397	     13.64608660	      8.41010549	     -2.61050598	    -13.79508157	     -1.21306072	     -6.55414237	      4.17058490	     25.38933002	     -4.00500212	      5.52475192	    -61.36124553	    -14.29788203	     -3.13624205	     27.24680082	      8.82642023	      1.62105121	      0.11555819
      4.25000000	     -8.91494108	     -4.38337136	      6.66439491	     -1.49911511	     -0.01220611	      0.43186615	     13.10919146	      8.12639227	     -2.28007961	    -13.51219411	     -1.06377485	     -6.50224732	      4.19578540	     25.93533399	     -3.57119327	      5.22833661	    -60.83380091	    -13.42419403	     -2.67259704	     27.41245317	      8.81918424	      1.22132319	      0.49585215
